<?xml version="1.0" standalone="no"?>
<!DOCTYPE svg PUBLIC "-//W3C//DTD SVG 20010904//EN"
 "http://www.w3.org/TR/2001/REC-SVG-20010904/DTD/svg10.dtd">
<svg version="1.0" xmlns="http://www.w3.org/2000/svg"
 width="399.000000pt" height="399.000000pt" viewBox="0 0 399.000000 399.000000"
 preserveAspectRatio="xMidYMid meet">
<metadata>
Created by potrace 1.11, written by Peter Selinger 2001-2013
</metadata>
<g transform="translate(0.000000,399.000000) scale(0.100000,-0.100000)"
fill="#000000" stroke="none">
<path d="M2000 3738 c-19 -5 -41 -9 -48 -10 -7 -1 -25 -13 -40 -27 -15 -13
-28 -24 -29 -23 -11 8 -23 0 -17 -10 5 -9 2 -9 -9 1 -13 10 -20 11 -30 2 -8
-6 -17 -8 -20 -4 -4 3 -7 0 -7 -7 0 -7 -3 -11 -6 -7 -13 12 -66 -17 -80 -45
-9 -17 -11 -27 -6 -24 6 3 13 -1 16 -10 3 -8 10 -13 14 -10 12 7 31 -31 36
-69 2 -16 11 -45 21 -62 9 -18 14 -37 10 -43 -3 -5 -2 -10 4 -10 5 0 9 -9 8
-20 -1 -11 -5 -20 -10 -20 -4 0 -6 -4 -2 -9 3 -6 -12 -10 -35 -9 -33 0 -38 3
-29 14 8 10 8 14 1 14 -6 0 -9 7 -6 15 4 9 0 15 -9 15 -19 0 -39 -24 -29 -35
4 -5 1 -5 -5 -1 -7 4 -13 3 -13 -2 0 -16 -60 -5 -74 14 -12 16 -12 20 0 27 8
5 11 13 8 19 -4 6 1 17 10 24 10 7 17 15 17 18 0 3 2 13 6 22 3 8 0 26 -7 38
-10 20 -19 23 -71 21 -32 0 -59 3 -59 9 0 5 -10 0 -23 -12 l-22 -21 -17 30
c-10 17 -13 29 -6 29 7 0 7 4 -1 13 -6 8 -9 17 -6 20 3 4 2 5 -1 3 -3 -3 -17
7 -30 21 -13 14 -24 21 -24 15 0 -11 -18 -11 -36 1 -7 4 -14 0 -18 -8 -3 -8
-12 -15 -19 -15 -8 0 -20 -7 -27 -15 -7 -8 -16 -12 -21 -9 -5 3 -9 0 -9 -6 0
-6 -4 -8 -10 -5 -5 3 -10 -1 -10 -9 0 -9 -5 -16 -11 -16 -5 0 -8 -4 -5 -9 3
-5 -1 -11 -9 -15 -8 -3 -15 -12 -15 -21 0 -8 -4 -15 -9 -15 -5 0 -11 -11 -13
-25 -3 -14 -1 -25 4 -25 5 0 6 -4 3 -10 -5 -9 1 -12 21 -9 4 0 10 -5 15 -12 6
-10 11 -10 22 -1 7 7 17 9 21 5 3 -4 14 -8 23 -9 18 -3 36 -29 38 -55 1 -12
-7 -16 -29 -17 -51 0 -57 -2 -52 -10 2 -4 -9 -14 -25 -21 -17 -7 -28 -16 -25
-19 3 -3 2 -10 -3 -16 -12 -14 12 -48 30 -44 7 2 13 -1 14 -7 0 -5 7 -21 14
-34 8 -14 9 -21 2 -17 -6 4 -11 2 -11 -4 0 -6 -5 -8 -10 -5 -6 4 -10 3 -9 -2
5 -27 -3 -33 -35 -30 -19 2 -49 -3 -67 -12 -25 -11 -34 -12 -37 -3 -2 7 -8 10
-13 6 -5 -3 -9 -1 -9 5 0 10 -57 27 -75 22 -5 -1 -7 1 -3 5 4 4 0 13 -10 20
-13 9 -19 9 -24 1 -5 -8 -8 -7 -8 3 0 12 -2 12 -9 1 -6 -10 -13 -11 -29 -2
-27 15 -85 14 -100 -1 -7 -7 -12 -8 -12 -2 0 5 -4 3 -9 -5 -5 -8 -18 -15 -28
-16 -31 -2 -80 -54 -89 -93 -7 -38 -7 -49 1 -89 6 -24 59 -58 75 -48 6 3 10 2
10 -3 0 -5 12 -12 27 -15 60 -12 66 -14 78 -30 7 -9 15 -14 18 -10 4 3 7 1 7
-5 0 -7 12 -12 28 -13 15 0 22 -3 15 -5 -7 -3 -10 -11 -7 -18 3 -8 -1 -20 -8
-27 -21 -21 -58 -101 -52 -111 3 -5 0 -7 -8 -6 -7 2 -12 -3 -10 -11 3 -12 0
-12 -12 -1 -9 7 -16 9 -16 4 0 -5 -4 -4 -8 2 -4 6 -26 21 -50 34 -38 22 -47
31 -43 53 0 4 -7 7 -16 7 -10 0 -14 4 -8 8 13 9 12 32 -3 60 -20 35 -60 29
-109 -17 -23 -22 -44 -37 -47 -34 -6 6 -10 -21 -7 -46 2 -8 -2 -10 -10 -5 -8
4 -10 3 -5 -4 4 -6 -1 -23 -10 -38 -10 -14 -19 -44 -20 -65 -3 -47 20 -64 80
-60 30 2 36 0 30 -11 -6 -10 -4 -10 9 1 13 11 17 11 17 1 0 -8 3 -10 7 -7 3 4
12 2 20 -4 7 -6 13 -8 13 -3 0 5 5 2 10 -6 7 -11 10 -11 10 -2 0 8 5 10 12 6
15 -10 67 -11 61 -1 -2 4 1 7 6 7 6 0 11 -7 11 -16 0 -8 4 -13 8 -10 5 3 9 -1
9 -9 0 -8 -4 -15 -9 -15 -5 0 -7 -4 -4 -8 6 -10 -38 -52 -54 -52 -6 0 -10 -4
-10 -9 0 -5 -9 -11 -20 -14 -11 -3 -20 -1 -20 5 0 5 -4 7 -9 3 -5 -3 -17 5
-25 17 -9 12 -16 19 -16 14 0 -5 -6 -4 -12 1 -7 5 -28 10 -46 11 -32 2 -99 52
-70 52 10 0 9 3 -1 9 -8 5 -16 17 -17 25 -1 9 2 14 7 10 5 -3 6 -11 3 -17 -5
-9 -3 -9 6 0 10 9 11 15 1 26 -9 12 -17 12 -36 3 -14 -6 -25 -14 -25 -18 0 -4
-7 -5 -15 -2 -8 4 -15 1 -15 -5 0 -6 -11 -16 -23 -22 -22 -10 -66 -69 -51 -69
3 0 1 -7 -6 -15 -17 -21 -14 -98 6 -140 13 -28 22 -35 44 -35 15 0 33 6 40 14
6 8 17 13 25 10 7 -3 16 -1 19 5 4 6 18 6 36 1 19 -6 28 -5 24 1 -6 11 51 7
81 -6 28 -12 47 -33 41 -44 -8 -13 21 -34 35 -26 8 5 9 1 5 -13 -4 -11 -2 -23
5 -27 8 -6 8 -10 -2 -15 -20 -13 -32 -87 -17 -107 5 -7 5 -14 -1 -17 -5 -4 -8
-17 -5 -31 5 -30 -24 -52 -63 -48 -36 4 -77 11 -83 13 -3 1 -9 2 -13 1 -5 -1
-6 2 -4 6 7 11 -14 37 -40 51 -27 15 -36 15 -28 2 3 -6 -1 -7 -9 -4 -9 3 -16
1 -16 -6 0 -6 -5 -8 -10 -5 -6 4 -9 3 -8 -2 3 -11 -32 -76 -46 -85 -8 -6 -8
-8 0 -8 14 0 13 -52 -1 -62 -6 -5 -6 -8 1 -8 6 0 10 -10 9 -23 -3 -33 26 -66
58 -67 15 0 27 -5 27 -11 0 -5 5 -7 10 -4 6 3 10 0 10 -7 0 -9 3 -9 10 2 8 13
10 12 10 -3 0 -14 4 -16 19 -7 21 10 40 -3 21 -15 -5 -3 -10 -3 -10 2 -1 4 -7
-3 -15 -17 -8 -14 -14 -19 -15 -12 0 8 -7 6 -21 -7 -12 -11 -18 -24 -14 -30 3
-6 1 -11 -5 -11 -7 0 -10 -6 -7 -12 2 -7 0 -23 -4 -35 -5 -13 -5 -23 0 -23 4
0 7 -15 6 -34 0 -19 3 -32 7 -30 4 3 8 2 9 -3 5 -46 7 -56 16 -61 15 -11 24
-42 29 -102 2 -34 10 -57 19 -63 8 -4 15 -15 15 -22 0 -8 4 -15 9 -15 5 0 8
-8 7 -17 -2 -11 10 -24 33 -36 20 -11 38 -23 41 -27 5 -8 34 -13 58 -11 11 1
31 38 36 69 2 14 8 15 33 4 17 -7 25 -22 26 -49 0 -7 7 -13 15 -13 9 0 13 -3
9 -6 -3 -3 3 -15 13 -27 15 -15 17 -24 9 -34 -6 -7 -16 -10 -22 -6 -6 3 -7 1
-3 -5 4 -7 3 -12 -2 -12 -13 0 -24 -48 -15 -63 4 -7 8 -16 9 -22 3 -26 17 -55
27 -55 6 0 18 -6 26 -14 9 -8 27 -17 41 -19 14 -3 42 -15 62 -26 38 -23 64
-24 85 -5 13 12 14 54 1 54 -4 0 -8 14 -8 30 0 33 36 90 56 90 7 0 15 6 17 13
4 9 6 9 6 0 1 -7 8 -13 17 -13 8 0 13 -4 10 -9 -4 -5 -2 -11 4 -13 5 -1 11
-13 13 -25 2 -12 6 -25 10 -29 3 -4 2 -14 -3 -24 -5 -10 -7 -20 -4 -22 2 -3
-11 -17 -30 -32 -21 -16 -34 -34 -33 -46 1 -11 4 -20 8 -20 4 0 11 -9 14 -20
3 -11 13 -20 21 -20 8 0 12 -4 9 -10 -3 -5 6 -22 20 -36 22 -22 29 -24 36 -13
7 11 9 11 9 1 0 -7 4 -11 8 -8 4 2 13 -4 20 -15 8 -12 9 -19 1 -19 -5 0 -8 -4
-5 -9 4 -5 1 -11 -6 -13 -15 -5 -20 -45 -8 -68 11 -20 43 -54 75 -80 17 -13
18 -13 10 0 -8 13 -7 13 9 0 10 -8 25 -16 35 -18 32 -9 136 -14 129 -7 -4 4 0
14 8 22 8 8 12 18 9 23 -3 5 0 12 6 16 8 4 7 9 -2 15 -11 6 -11 11 -2 20 6 6
9 18 6 25 -3 8 0 14 7 14 6 0 8 5 5 10 -10 16 31 11 64 -7 17 -10 29 -24 26
-30 -2 -7 -1 -12 3 -12 20 3 32 -3 43 -22 6 -12 7 -19 1 -15 -13 8 -36 -20
-27 -34 3 -5 -1 -10 -10 -10 -22 0 -9 -50 18 -70 12 -8 30 -23 40 -33 22 -22
106 -35 152 -23 11 2 23 5 27 5 21 2 39 56 44 127 3 44 7 81 10 83 2 2 -1 10
-7 17 -6 8 -7 14 0 18 6 4 8 13 5 21 -4 8 -10 12 -15 9 -5 -3 -9 -3 -9 0 0 3
10 11 23 17 12 6 19 8 14 4 -12 -13 65 -36 80 -24 6 6 17 8 23 4 5 -3 10 0 10
7 0 7 9 2 20 -12 16 -20 17 -27 6 -35 -7 -5 -12 -20 -11 -32 1 -12 -2 -20 -7
-17 -4 3 -8 -4 -8 -15 0 -11 -5 -23 -11 -26 -6 -4 -8 -13 -5 -20 2 -7 -3 -25
-13 -41 -19 -33 -17 -64 5 -64 8 0 14 -4 14 -8 0 -14 84 -32 91 -20 4 6 12 7
20 2 18 -10 72 -5 80 8 3 5 9 9 13 9 33 -5 65 17 71 48 2 11 0 21 -5 21 -5 0
-11 9 -15 20 -3 11 -9 19 -13 19 -18 -3 -35 2 -29 8 4 3 -1 12 -11 20 -9 8
-11 12 -4 8 7 -4 12 0 12 10 0 12 -5 15 -17 11 -16 -6 -16 -6 0 12 10 11 15
28 12 43 -14 72 -15 110 -3 103 9 -6 9 -3 -1 9 -7 9 -10 17 -5 18 5 0 20 2 34
4 14 3 37 5 53 6 15 1 27 5 27 8 0 3 22 6 49 7 28 0 47 -4 45 -8 -3 -5 -10 -6
-15 -3 -5 4 -4 -6 1 -21 9 -23 8 -25 -4 -15 -11 9 -14 8 -12 -6 0 -10 10 -23
21 -30 11 -6 20 -15 20 -20 0 -4 4 -14 8 -21 5 -8 4 -11 -4 -10 -6 2 -21 -12
-32 -30 -15 -26 -17 -36 -7 -42 10 -6 10 -8 0 -12 -7 -2 7 -10 31 -18 24 -8
47 -19 51 -25 5 -7 8 -7 8 1 0 6 15 9 35 8 19 -2 35 0 35 4 0 15 50 5 67 -14
19 -20 69 -32 57 -13 -5 8 -1 8 14 0 25 -14 35 -14 27 -2 -3 6 4 15 15 21 11
6 20 8 20 5 0 -2 8 2 18 10 9 8 26 22 37 31 11 8 13 12 5 8 -8 -4 -5 3 7 14
12 12 24 31 28 42 4 11 10 18 15 15 4 -3 14 8 22 25 7 16 17 30 21 30 5 0 5 5
2 10 -3 6 1 13 9 16 9 3 13 10 10 15 -3 5 0 9 6 9 24 0 4 44 -27 61 -18 10
-33 16 -33 12 0 -9 -36 40 -43 58 -3 9 -2 20 3 25 4 5 13 25 18 45 9 34 8 36
-12 33 -11 -2 -15 -2 -8 2 6 3 12 10 12 15 0 6 -4 8 -8 5 -4 -2 -8 6 -8 20 0
14 6 24 14 24 7 0 11 4 8 8 -3 5 6 16 19 26 14 10 22 23 19 28 -3 4 0 7 7 6 7
-2 18 8 26 22 7 14 17 24 23 22 5 -1 10 3 10 8 0 6 6 5 14 -2 8 -7 12 -16 10
-19 -6 -11 44 -51 55 -44 6 3 11 0 12 -7 0 -7 2 -22 5 -33 2 -11 5 -39 8 -63
5 -59 19 -71 84 -74 12 0 22 -3 22 -7 0 -3 14 -6 30 -6 17 0 30 3 30 6 0 3 14
4 30 3 17 -1 30 2 30 8 0 5 5 6 10 3 6 -3 13 1 16 9 3 9 10 14 14 11 11 -7 43
32 35 44 -3 6 -1 11 5 11 7 0 10 6 7 14 -3 7 0 19 6 26 9 10 9 11 0 6 -9 -5
-11 -2 -7 8 3 9 9 16 13 16 10 0 2 60 -11 88 -6 12 -19 22 -29 22 -10 0 -25 7
-33 16 -9 8 -16 13 -16 9 0 -3 -18 4 -40 16 -22 13 -40 26 -40 31 0 4 -7 8
-15 8 -8 0 -15 5 -15 11 0 8 -6 7 -17 -2 -17 -13 -17 -13 -3 5 8 11 14 22 13
25 -5 12 9 41 19 41 6 0 8 9 5 20 -3 11 -1 18 4 14 5 -3 9 2 9 10 0 15 12 21
33 17 5 -1 6 3 2 9 -3 5 1 13 9 16 9 3 14 10 11 14 -3 5 -1 11 5 15 6 4 8 11
5 16 -4 5 0 9 7 9 10 0 10 2 -1 9 -11 7 -11 13 3 32 9 13 16 17 16 10 0 -8 7
-11 20 -8 10 3 27 -1 37 -9 10 -7 26 -14 36 -14 10 0 15 -4 12 -10 -3 -5 -2
-10 3 -10 5 0 13 -17 18 -37 7 -31 14 -38 34 -39 24 0 70 37 70 57 0 6 5 7 10
4 6 -3 10 -1 10 5 0 6 4 9 9 6 10 -6 53 56 50 71 -2 9 8 39 22 66 5 10 7 22 4
26 -3 5 2 11 10 15 8 3 15 12 15 19 0 8 8 21 18 30 13 12 18 34 20 82 2 43 -1
64 -8 60 -5 -3 -10 3 -10 15 0 26 -30 59 -50 54 -8 -2 -33 -8 -55 -13 -148
-35 -240 -32 -233 7 1 9 -1 23 -5 30 -5 6 -5 12 0 12 4 0 7 20 6 45 -1 29 2
43 9 39 6 -4 6 2 -1 15 -7 11 -10 21 -9 22 28 7 39 6 34 -6 -7 -19 5 -27 21
-14 9 9 13 8 13 0 0 -6 4 -11 10 -11 12 0 80 68 80 80 0 6 3 10 8 10 4 0 8 13
8 30 1 17 -2 30 -7 30 -5 0 -2 11 7 25 9 14 21 22 28 18 6 -4 5 1 -2 10 -12
14 -11 15 12 11 16 -3 26 0 26 7 0 8 4 9 13 0 8 -6 16 -9 18 -7 2 2 19 6 37 9
19 3 36 8 39 11 11 10 20 86 11 86 -5 0 -6 5 -3 10 3 6 2 10 -4 10 -5 0 -11
15 -13 33 -2 22 -7 31 -18 29 -8 -2 -12 0 -8 4 4 4 3 12 -2 19 -5 6 -11 21
-13 33 -2 12 -6 25 -10 28 -4 4 -7 22 -7 41 0 18 -5 33 -12 33 -6 0 -8 3 -5 6
4 4 -3 15 -16 26 -12 10 -40 34 -62 53 -22 19 -51 44 -65 56 -14 11 -19 18
-12 14 20 -10 15 82 -7 113 -10 15 -22 37 -25 50 -4 12 -12 22 -17 22 -5 0 -9
6 -9 13 0 7 -9 23 -20 35 -12 12 -18 22 -15 22 9 0 -26 63 -45 82 -10 9 -21
14 -24 11 -3 -4 -6 -1 -6 6 0 14 -39 50 -54 51 -13 0 -46 41 -46 57 0 8 -4 12
-9 9 -5 -4 -7 4 -3 16 3 14 1 19 -6 14 -8 -5 -10 -2 -6 8 3 9 1 16 -5 16 -7 0
-11 6 -10 13 4 25 -32 89 -47 83 -8 -3 -14 1 -14 9 0 8 -3 15 -7 16 -94 9
-122 7 -138 -11 -9 -10 -14 -24 -10 -29 3 -6 2 -11 -4 -11 -5 0 -8 -9 -6 -20
2 -11 -1 -23 -7 -26 -7 -5 -8 -2 -4 7 5 9 3 9 -6 -1 -9 -11 -23 -14 -48 -10
-19 3 -48 5 -65 3 -52 -6 -71 -4 -101 11 -24 13 -32 13 -49 2 -21 -14 -24 -40
-12 -88 5 -18 3 -28 -3 -28 -6 0 -8 6 -4 13 6 8 3 8 -9 -1 -14 -12 -19 -12
-31 0 -8 7 -32 28 -54 46 l-41 34 19 33 c18 33 18 34 -2 57 -11 13 -26 22 -34
20 -8 -2 -14 2 -14 8 0 5 -5 10 -11 10 -15 0 -39 26 -32 34 4 3 2 6 -4 6 -5 0
-10 6 -10 14 0 8 6 12 14 9 7 -3 13 1 13 9 0 12 33 48 45 48 3 0 14 8 25 17
21 18 27 43 10 43 -6 0 -9 6 -8 13 2 6 -3 11 -10 9 -8 -1 -11 2 -7 8 3 5 -5
15 -19 22 -14 6 -26 15 -26 20 0 4 -7 8 -15 8 -8 0 -15 4 -15 9 0 9 -7 10 -75
12 -38 2 -82 -6 -117 -20 -16 -6 -28 -7 -28 -3 0 4 -5 0 -10 -8 -6 -10 -10
-11 -10 -2 0 6 -7 12 -15 12 -8 0 -15 4 -15 8 0 13 -33 48 -50 53 -8 3 -31 2
-50 -3z m191 -156 c13 -12 15 -20 8 -34 -7 -13 -6 -18 2 -18 8 0 8 -4 -1 -15
-9 -11 -9 -15 -1 -15 8 0 9 -5 1 -19 -6 -13 -7 -22 0 -26 5 -3 9 -23 7 -44 -1
-22 -6 -37 -11 -33 -5 3 -6 -3 -2 -14 4 -10 4 -15 0 -11 -4 4 -13 2 -21 -4 -9
-9 -13 -8 -13 0 0 9 -5 9 -20 1 -15 -8 -20 -8 -20 2 0 9 -3 9 -10 -2 -7 -11
-10 -11 -10 -2 0 7 -5 10 -12 6 -6 -4 -8 -3 -4 4 3 6 2 13 -4 17 -6 4 -8 10
-6 14 3 4 -1 8 -9 8 -10 0 -12 -4 -5 -12 5 -7 7 -15 3 -18 -3 -4 -12 1 -20 11
-12 16 -13 15 -7 -3 7 -20 7 -20 -9 0 -17 23 -13 37 8 28 9 -3 15 1 15 8 0 11
3 11 10 -1 5 -8 10 -11 10 -6 0 5 6 4 13 -2 10 -8 14 -6 16 11 5 40 5 82 -2
112 -7 30 17 70 34 59 5 -3 9 -1 9 4 0 14 32 10 51 -6z m875 -409 c18 -17 28
-63 13 -63 -3 0 -9 -9 -12 -21 -3 -12 -10 -18 -17 -14 -6 3 -9 3 -8 -2 5 -14
-54 -73 -66 -65 -6 4 -14 7 -18 7 -4 0 -16 6 -27 14 -18 14 -18 14 5 36 13 12
24 27 24 34 0 6 5 11 10 11 6 0 9 3 8 8 -5 15 35 63 48 58 8 -3 14 -1 14 4 0
14 4 13 26 -7z m-1893 -61 c3 7 6 9 6 3 0 -5 -3 -16 -8 -24 -8 -12 -12 -12
-25 -2 -9 7 -13 17 -10 23 3 5 11 5 19 -2 10 -8 14 -7 18 2z m2002 -222 c-3
-5 2 -10 12 -10 15 0 16 -2 3 -10 -8 -5 -11 -10 -7 -10 8 0 -9 -18 -55 -59
-24 -21 -29 -22 -42 -9 -22 23 -10 57 20 53 13 -1 21 2 18 6 -3 5 2 9 10 9 8
0 20 9 26 20 6 11 13 20 16 20 3 0 2 -4 -1 -10z m140 -200 c33 12 74 -8 70
-32 -3 -12 -9 -26 -14 -31 -12 -12 -134 -14 -138 -1 -5 14 49 77 56 66 3 -5
15 -6 26 -2z m-2678 -1230 c2 -20 -11 -33 -34 -36 -7 -1 -13 2 -13 7 0 6 -4 7
-10 4 -18 -11 -11 4 12 25 28 25 43 26 45 0z"/>
<path d="M3245 2639 c-4 -6 -5 -12 -2 -15 2 -3 7 2 10 11 7 17 1 20 -8 4z"/>
</g>
</svg>
